<?xml version="1.0" standalone="no"?>
<!DOCTYPE svg PUBLIC "-//W3C//DTD SVG 20010904//EN"
 "http://www.w3.org/TR/2001/REC-SVG-20010904/DTD/svg10.dtd">
<svg version="1.0" xmlns="http://www.w3.org/2000/svg"
 width="1133.000000pt" height="1138.000000pt" viewBox="0 0 1133.000000 1138.000000"
 preserveAspectRatio="xMidYMid meet">
<metadata>
Created by potrace 1.16, written by Peter Selinger 2001-2019
</metadata>
<g transform="translate(0.000000,1138.000000) scale(0.100000,-0.100000)"
fill="#000000" stroke="none">
<path d="M5563 11264 c-123 -73 -126 -270 -6 -346 l38 -23 660 -5 c651 -5 661
-5 700 -26 71 -38 105 -95 105 -174 0 -79 -34 -136 -105 -174 l-40 -21 -1295
-5 c-1168 -5 -1299 -7 -1336 -21 -212 -86 -348 -231 -399 -426 -19 -73 -19
-233 0 -306 51 -195 192 -346 399 -425 32 -12 109 -17 356 -23 344 -7 382 -13
498 -71 109 -55 232 -185 278 -293 l14 -35 -1402 2 -1403 3 -40 21 c-46 25
-65 45 -91 94 -18 33 -19 74 -24 630 -6 652 -2 604 -70 741 -44 87 -162 203
-251 246 -136 66 -90 63 -1134 63 l-947 0 4 -192 c4 -184 6 -198 36 -288 106
-319 370 -553 693 -615 46 -9 170 -31 274 -49 l190 -32 5 -420 c6 -455 8 -471
70 -655 114 -342 371 -638 693 -800 54 -28 138 -63 186 -79 191 -64 169 -62
861 -69 595 -6 637 -7 670 -25 49 -26 69 -45 94 -91 20 -39 21 -54 24 -429 l3
-388 -27 -67 c-15 -36 -29 -67 -30 -69 0 -1 -21 6 -45 16 -128 55 -348 69
-495 32 -288 -73 -511 -296 -584 -584 -28 -109 -28 -283 0 -392 42 -163 133
-310 263 -421 116 -100 323 -183 457 -183 l57 0 6 -113 c22 -384 199 -772 479
-1050 l118 -117 0 -1174 0 -1173 -232 -37 c-128 -21 -266 -46 -306 -57 -295
-78 -530 -306 -628 -609 -25 -78 -28 -101 -32 -278 l-4 -192 949 0 c1044 0
996 -3 1130 62 95 46 208 159 257 256 70 139 66 65 66 1322 0 695 4 1162 10
1205 27 186 158 318 345 345 45 6 891 10 2405 10 2572 0 2378 -5 2517 62 95
46 208 159 257 256 69 137 66 85 66 1135 l0 949 -192 -4 c-177 -4 -200 -7
-278 -33 -163 -53 -279 -125 -391 -241 -81 -86 -120 -143 -169 -247 -50 -107
-55 -127 -104 -422 l-42 -250 -937 -3 c-515 -1 -937 1 -937 5 0 5 9 51 20 103
11 52 23 139 26 193 l7 97 54 0 c137 0 341 81 465 185 120 100 217 254 260
413 29 109 29 296 -1 406 -42 158 -140 313 -260 413 -83 69 -241 146 -345 169
-120 26 -313 16 -426 -22 -47 -16 -89 -28 -93 -29 -4 0 -19 27 -33 60 l-25 60
3 395 c3 382 4 396 24 435 25 46 45 65 94 91 33 18 75 19 670 25 544 5 645 8
704 23 191 46 379 130 526 235 105 74 249 219 325 326 73 102 158 273 195 395
55 177 60 236 60 659 l0 387 203 33 c111 18 236 39 277 48 258 52 485 220 614
454 80 145 106 265 106 480 l0 159 -948 0 c-1047 0 -997 3 -1131 -65 -127 -63
-228 -176 -287 -320 l-29 -70 -5 -595 c-5 -557 -6 -597 -24 -630 -26 -49 -45
-69 -91 -94 l-40 -21 -1430 -3 -1430 -2 -18 72 c-25 104 -105 260 -184 358
-126 157 -326 289 -518 341 -71 20 -114 23 -395 28 -294 6 -318 8 -355 28 -70
37 -105 94 -105 173 0 79 34 136 105 174 l40 21 1295 5 1295 5 70 29 c187 77
322 228 370 413 19 73 19 233 0 306 -54 208 -224 377 -432 431 -52 14 -155 16
-739 16 l-679 0 -42 -26z m-3608 -1000 c86 -46 107 -94 113 -251 l5 -123 -279
0 -279 0 -345 58 c-379 64 -412 75 -514 157 -49 40 -136 153 -136 177 0 5 275
8 698 6 691 -3 697 -3 737 -24z m8865 19 c0 -12 -39 -73 -73 -117 -42 -53
-136 -120 -204 -146 -30 -11 -205 -45 -387 -75 l-331 -55 -279 0 -279 0 5 123
c7 180 47 243 168 268 47 9 1380 11 1380 2z m-8750 -1041 c0 -274 5 -312 62
-429 46 -95 159 -208 256 -257 140 -70 32 -66 1634 -66 l1448 0 0 -232 c0
-229 0 -232 25 -274 37 -63 95 -94 175 -94 80 0 138 31 175 94 25 42 25 45 25
274 l0 232 1448 0 c1593 0 1492 -4 1629 62 95 46 208 159 257 256 61 120 66
156 66 434 l0 248 200 0 200 0 0 -277 c0 -440 -17 -563 -99 -739 -53 -113
-112 -196 -200 -285 -172 -172 -378 -267 -626 -289 -60 -5 -349 -10 -640 -10
-589 0 -585 0 -717 -66 -97 -49 -210 -162 -256 -257 -50 -105 -62 -164 -62
-319 l0 -138 -85 65 c-209 159 -445 261 -695 301 -147 23 -1202 15 -1310 -10
-245 -57 -498 -177 -658 -313 l-52 -45 0 139 c0 159 -12 217 -66 325 -48 96
-162 210 -255 255 -130 63 -133 63 -715 63 -291 0 -578 5 -639 10 -248 22
-454 117 -626 289 -88 89 -147 172 -200 285 -82 176 -99 299 -99 739 l0 277
200 0 200 0 0 -248z m4066 -2162 c392 -35 737 -267 908 -609 77 -154 135 -295
155 -382 11 -46 67 -257 126 -468 103 -375 135 -515 135 -592 0 -23 5 -39 12
-39 13 0 5 -187 -12 -285 -12 -67 -51 -207 -59 -215 -3 -3 -26 -47 -51 -99
-170 -357 -446 -589 -803 -674 -90 -22 -105 -22 -862 -22 -850 0 -848 0 -1027
65 -366 134 -642 462 -740 880 -24 106 -36 423 -19 521 6 35 50 201 97 369 47
168 104 370 126 450 65 242 98 340 148 446 60 128 114 207 209 306 200 210
449 328 746 351 95 8 819 6 911 -3z m-2513 -1033 c31 -14 60 -33 63 -41 3 -8
-38 -166 -90 -351 -53 -185 -96 -343 -96 -351 0 -10 -11 -12 -47 -8 -163 20
-276 97 -342 234 -23 49 -26 67 -26 160 0 93 3 112 27 162 47 100 137 180 241
214 69 22 200 13 270 -19z m4419 -5 c79 -38 149 -110 186 -190 24 -50 27 -69
27 -162 0 -93 -3 -111 -27 -163 -34 -72 -121 -160 -191 -192 -42 -20 -186 -51
-193 -42 -1 1 -47 162 -102 357 -81 286 -98 357 -88 368 7 7 39 24 72 38 52
22 71 24 155 22 84 -3 104 -7 161 -36z m2426 -1499 c-3 -692 -3 -698 -24 -738
-46 -86 -94 -107 -251 -113 l-123 -5 0 274 0 274 58 350 c64 385 74 416 157
519 40 49 153 136 177 136 5 0 8 -275 6 -697z m-798 -653 l0 -200 -1161 0
-1161 0 86 90 c47 50 118 140 158 200 l73 110 1003 0 1002 0 0 -200z m-4953
-575 c43 -9 117 -19 164 -22 l87 -6 -29 -61 c-16 -34 -38 -97 -49 -140 -19
-76 -20 -109 -20 -938 l0 -858 -200 0 -200 0 0 1048 0 1048 84 -27 c47 -16
120 -35 163 -44z m151 -2547 c-6 -161 -27 -206 -118 -254 -33 -18 -73 -19
-732 -22 -384 -1 -698 1 -698 6 0 13 54 94 89 135 43 49 139 111 202 132 29
10 194 41 368 70 l316 53 289 1 289 1 -5 -122z"/>
<path d="M4632 6059 c-108 -53 -162 -144 -162 -269 0 -125 54 -216 162 -269
52 -27 72 -31 138 -31 66 0 86 4 138 31 108 53 162 143 162 270 0 177 -123
299 -301 299 -65 0 -85 -4 -137 -31z"/>
<path d="M6432 6059 c-108 -53 -162 -144 -162 -269 0 -125 54 -216 162 -269
52 -27 72 -31 138 -31 66 0 86 4 138 31 108 53 162 143 162 270 0 177 -123
299 -301 299 -65 0 -85 -4 -137 -31z"/>
<path d="M5363 5264 c-62 -37 -93 -95 -93 -174 0 -50 5 -73 25 -106 29 -50 96
-94 143 -94 l32 0 0 -281 0 -281 -27 6 c-80 19 -266 128 -318 186 -71 79 -215
85 -299 11 -59 -52 -77 -171 -38 -248 37 -72 214 -209 359 -278 166 -80 326
-115 523 -115 199 0 355 34 523 115 145 69 322 206 359 278 39 77 21 196 -38
248 -84 74 -228 68 -299 -11 -52 -58 -238 -167 -317 -186 l-28 -6 0 281 0 281
32 0 c47 0 114 44 143 94 20 33 25 56 25 106 0 80 -31 138 -94 175 l-43 25
-264 0 -264 0 -42 -26z"/>
</g>
</svg>
