<?xml version="1.0" standalone="no"?>
<!DOCTYPE svg PUBLIC "-//W3C//DTD SVG 20010904//EN"
 "http://www.w3.org/TR/2001/REC-SVG-20010904/DTD/svg10.dtd">
<svg version="1.0" xmlns="http://www.w3.org/2000/svg"
 width="1280.000000pt" height="1271.000000pt" viewBox="0 0 1280.000000 1271.000000"
 preserveAspectRatio="xMidYMid meet">
<metadata>
Created by potrace 1.16, written by Peter Selinger 2001-2019
</metadata>
<g transform="translate(0.000000,1271.000000) scale(0.100000,-0.100000)"
fill="#000000" stroke="none">
<path d="M6050 11895 c-672 -82 -1269 -370 -1721 -832 -376 -383 -604 -820
-700 -1344 -22 -118 -23 -152 -27 -693 -2 -345 0 -567 6 -565 5 2 140 83 301
179 l291 175 0 320 c0 518 18 661 109 867 111 251 334 477 583 593 86 39 219
80 317 96 104 17 352 14 446 -6 291 -61 523 -205 713 -440 l32 -40 32 40 c145
180 303 298 506 379 291 117 658 107 954 -23 310 -137 559 -421 653 -745 43
-150 47 -197 52 -627 l5 -416 291 -174 c159 -96 294 -176 299 -178 6 -2 8 228
5 590 -3 545 -5 605 -24 725 -91 561 -312 1013 -673 1374 -430 429 -1025 684
-1755 750 -150 14 -567 11 -695 -5z"/>
<path d="M5320 10310 c-189 -15 -352 -92 -490 -230 -95 -95 -152 -186 -197
-315 l-28 -80 -3 -540 -3 -541 -487 -292 c-268 -161 -493 -296 -500 -301 -11
-7 -12 -26 -2 -107 57 -488 304 -925 690 -1223 223 -172 465 -281 756 -343
l109 -23 1240 0 1240 0 104 23 c294 65 531 173 751 343 381 294 624 718 686
1198 14 104 14 125 3 132 -8 5 -233 140 -501 301 l-487 292 -3 541 -3 540 -28
80 c-45 129 -102 220 -197 315 -146 145 -299 214 -512 231 -190 14 -349 -18
-488 -98 -80 -47 -223 -188 -269 -266 -54 -93 -91 -209 -103 -329 l-12 -108
-186 0 -186 0 -11 103 c-21 191 -83 332 -203 460 -174 186 -389 261 -680 237z
m180 -1221 c105 -24 208 -110 258 -217 24 -50 27 -69 27 -162 0 -93 -3 -112
-27 -162 -37 -80 -107 -152 -187 -191 -61 -30 -72 -32 -171 -32 -93 0 -111 3
-163 27 -74 35 -160 121 -195 195 -24 52 -27 70 -27 163 0 93 3 112 27 162 55
117 178 211 300 227 56 8 85 6 158 -10z m2019 -5 c104 -33 192 -112 239 -212
24 -50 27 -69 27 -162 0 -93 -3 -111 -27 -163 -15 -32 -51 -81 -82 -113 -32
-31 -81 -67 -113 -82 -52 -24 -70 -27 -163 -27 -99 0 -110 2 -171 32 -80 39
-150 111 -187 191 -24 50 -27 69 -27 162 0 93 3 112 27 162 84 180 290 272
477 212z m-1319 -1174 l0 -200 -200 0 -200 0 0 200 0 200 200 0 200 0 0 -200z
m800 0 l0 -200 -200 0 -200 0 0 200 0 200 200 0 200 0 0 -200z m-1400 -426 c0
-46 51 -124 115 -176 160 -129 397 -198 685 -198 293 0 526 68 692 204 57 46
108 127 108 170 l0 26 195 0 195 0 0 -42 c0 -112 -69 -262 -167 -368 -93 -101
-178 -162 -318 -231 -211 -103 -433 -150 -705 -150 -430 0 -791 132 -1017 375
-102 109 -173 262 -173 373 l0 43 195 0 195 0 0 -26z"/>
<path d="M2263 9311 c-219 -63 -380 -229 -438 -449 -20 -77 -19 -227 1 -306
57 -222 236 -399 456 -451 131 -31 206 -22 540 60 166 42 320 80 341 86 l37
10 0 163 0 163 -102 31 c-191 59 -232 66 -398 67 -175 0 -222 -11 -312 -71
l-52 -35 -133 133 c-73 73 -133 136 -133 140 0 15 137 111 205 143 207 99 482
111 796 34 66 -16 122 -29 125 -29 2 0 4 36 4 80 l0 79 -37 10 c-21 6 -175 44
-341 86 -277 68 -313 75 -400 74 -61 0 -120 -7 -159 -18z"/>
<path d="M9975 9255 c-165 -42 -317 -80 -337 -86 l-38 -10 0 -81 c0 -79 0 -80
23 -74 335 96 626 101 850 14 78 -30 206 -108 242 -148 l19 -21 -135 -135
-135 -135 -52 34 c-89 61 -138 72 -307 72 -164 0 -238 -12 -407 -66 l-98 -31
0 -163 0 -163 351 -87 c349 -87 352 -87 453 -83 261 12 477 175 557 420 20 61
24 93 24 198 0 105 -4 137 -24 199 -59 180 -207 328 -391 392 -49 16 -94 23
-180 26 l-115 3 -300 -75z"/>
<path d="M5560 5895 c-191 -35 -386 -114 -548 -221 -107 -72 -255 -213 -338
-323 -79 -105 -185 -315 -219 -436 -57 -199 -55 -143 -55 -1631 l0 -1374 609
0 608 0 6 63 c3 34 45 620 93 1302 48 682 88 1241 89 1242 3 5 377 -26 383
-31 3 -4 -13 -273 -37 -599 -23 -325 -41 -597 -41 -603 0 -7 27 -6 88 4 95 15
385 11 455 -6 31 -8 37 -7 37 7 0 9 -18 280 -41 603 -24 323 -40 590 -37 594
6 5 381 36 383 31 1 -1 41 -560 89 -1242 48 -682 90 -1268 93 -1302 l6 -63
608 0 609 0 0 1374 c0 1489 2 1433 -55 1631 -33 113 -109 273 -181 383 -72
107 -213 255 -323 338 -165 124 -397 223 -605 259 -123 21 -1559 21 -1676 0z"/>
<path d="M9693 5485 c-62 -38 -93 -96 -93 -175 0 -80 31 -138 93 -174 41 -24
48 -24 317 -29 302 -5 342 -11 460 -70 44 -21 91 -57 145 -112 124 -123 175
-245 175 -415 0 -170 -51 -292 -175 -415 -85 -86 -160 -130 -270 -162 -54 -15
-136 -17 -802 -21 l-743 -3 0 -200 0 -200 793 3 c789 3 792 4 872 26 273 78
511 275 635 527 79 159 95 236 95 445 0 209 -16 286 -95 445 -97 197 -258 358
-455 455 -178 88 -210 93 -585 97 l-325 4 -42 -26z"/>
<path d="M6197 2894 c-105 -23 -115 -29 -121 -66 -18 -114 -76 -1080 -76
-1263 0 -263 -13 -408 -46 -521 -27 -95 -82 -214 -134 -288 l-31 -46 611 0
611 0 -31 46 c-52 74 -107 193 -134 288 -34 114 -46 256 -46 536 -1 246 -69
1263 -86 1279 -43 42 -384 65 -517 35z"/>
<path d="M1473 2296 c-101 -33 -190 -113 -241 -216 l-27 -55 -3 -657 -3 -658
401 0 401 0 -3 658 -3 657 -29 60 c-38 77 -114 153 -191 190 -52 26 -72 30
-160 32 -64 2 -115 -2 -142 -11z"/>
<path d="M11073 2296 c-101 -33 -190 -113 -241 -216 l-27 -55 -3 -657 -3 -658
401 0 401 0 -3 658 -3 657 -29 60 c-38 77 -114 153 -191 190 -52 26 -72 30
-160 32 -64 2 -115 -2 -142 -11z"/>
<path d="M3190 1710 c-432 -88 -786 -159 -787 -160 -2 0 -3 -189 -3 -420 l0
-420 905 0 906 0 -31 46 c-52 74 -107 193 -134 288 -35 118 -46 258 -46 569 0
199 -3 257 -12 256 -7 -1 -366 -72 -798 -159z"/>
<path d="M8800 1613 c0 -311 -11 -451 -46 -569 -27 -95 -82 -214 -134 -288
l-31 -46 906 0 905 0 0 420 0 420 -22 5 c-24 6 -1571 315 -1575 315 -2 0 -3
-116 -3 -257z"/>
<path d="M4400 1364 c0 -169 13 -233 68 -339 51 -97 155 -200 252 -249 l75
-37 3 185 2 186 200 0 200 0 2 -186 3 -185 75 37 c97 49 201 152 252 249 55
106 68 170 68 339 l0 146 -600 0 -600 0 0 -146z"/>
<path d="M7200 1364 c0 -169 13 -233 68 -339 51 -97 155 -200 252 -249 l75
-37 3 185 2 186 200 0 200 0 2 -186 3 -185 75 37 c97 49 201 152 252 249 55
106 68 170 68 339 l0 146 -600 0 -600 0 0 -146z"/>
</g>
</svg>
